<svg width="18" height="18" viewBox="0 0 18 18" fill="none" xmlns="http://www.w3.org/2000/svg">
<path d="M14.9248 10.6658C14.5464 10.2736 14.0901 10.0639 13.6065 10.0639C13.1267 10.0639 12.6665 10.2697 12.2726 10.6619L11.0401 11.885C10.9387 11.8307 10.8373 11.7802 10.7398 11.7297C10.5994 11.6598 10.4667 11.5938 10.3536 11.5239C9.19915 10.7939 8.14997 9.8426 7.14369 8.61172C6.65616 7.99822 6.32853 7.48179 6.09062 6.9576C6.41044 6.66638 6.70686 6.36351 6.99548 6.07229C7.10469 5.96357 7.2139 5.85096 7.32311 5.74224C8.14217 4.92683 8.14217 3.87068 7.32311 3.05527L6.25833 1.99523C6.13742 1.87486 6.01261 1.75061 5.8956 1.62635C5.66159 1.38561 5.41587 1.13711 5.16235 0.904132C4.78402 0.531372 4.33159 0.333344 3.85575 0.333344C3.37992 0.333344 2.91968 0.531372 2.52965 0.904132C2.52575 0.908015 2.52575 0.908015 2.52185 0.911898L1.19576 2.24374C0.696518 2.74075 0.411797 3.34649 0.349393 4.04929C0.255786 5.1831 0.59121 6.23926 0.84863 6.93041C1.48048 8.62725 2.42435 10.1998 3.83235 11.885C5.54068 13.9158 7.59613 15.5194 9.9441 16.6493C10.8412 17.0726 12.0386 17.5735 13.3764 17.6589C13.4583 17.6628 13.5441 17.6667 13.6221 17.6667C14.523 17.6667 15.2797 17.3444 15.8725 16.7037C15.8764 16.6959 15.8842 16.6921 15.8881 16.6843C16.091 16.4397 16.325 16.2183 16.5707 15.9815C16.7384 15.8223 16.91 15.6553 17.0777 15.4806C17.4639 15.0807 17.6667 14.6147 17.6667 14.1371C17.6667 13.6556 17.46 13.1936 17.066 12.8053L14.9248 10.6658ZM16.3211 14.7545C16.3172 14.7545 16.3172 14.7584 16.3211 14.7545C16.169 14.9176 16.013 15.0651 15.8452 15.2282C15.5917 15.4689 15.3343 15.7213 15.0925 16.0048C14.6986 16.4241 14.2344 16.6222 13.626 16.6222C13.5675 16.6222 13.5051 16.6222 13.4466 16.6183C12.2882 16.5445 11.2117 16.0941 10.4043 15.7097C8.19677 14.6458 6.25833 13.1353 4.64751 11.221C3.31751 9.62516 2.42825 8.14965 1.8393 6.56542C1.47658 5.59858 1.34397 4.84529 1.40247 4.13472C1.44147 3.68042 1.61699 3.30377 1.94071 2.98149L3.27071 1.65742C3.46182 1.4788 3.66464 1.38173 3.86355 1.38173C4.10927 1.38173 4.30819 1.52928 4.43299 1.65353C4.43689 1.65742 4.44079 1.6613 4.4447 1.66518C4.68261 1.88651 4.90883 2.1156 5.14675 2.36022C5.26766 2.48448 5.39247 2.60873 5.51727 2.73687L6.58205 3.7969C6.99548 4.20849 6.99548 4.58902 6.58205 5.00061C6.46895 5.11321 6.35974 5.22582 6.24663 5.33454C5.919 5.66847 5.60698 5.9791 5.26766 6.28197C5.25986 6.28973 5.25206 6.29362 5.24816 6.30138C4.91273 6.63531 4.97513 6.96148 5.04534 7.1828C5.04924 7.19445 5.05314 7.2061 5.05704 7.21775C5.33396 7.88561 5.72399 8.51464 6.31683 9.26405L6.32073 9.26793C7.39721 10.5881 8.5322 11.6171 9.78419 12.4053C9.9441 12.5063 10.1079 12.5878 10.2639 12.6655C10.4043 12.7354 10.5369 12.8014 10.6501 12.8713C10.6657 12.879 10.6813 12.8907 10.6969 12.8985C10.8295 12.9645 10.9543 12.9955 11.083 12.9955C11.4067 12.9955 11.6095 12.7936 11.6758 12.7276L13.0097 11.3996C13.1423 11.2676 13.353 11.1084 13.5987 11.1084C13.8405 11.1084 14.0394 11.2599 14.1603 11.3919C14.1642 11.3958 14.1642 11.3958 14.1681 11.3996L16.3172 13.5391C16.7189 13.9352 16.7189 14.3429 16.3211 14.7545Z" fill="#D2334D" stroke="#D2334D" stroke-width="0.3"/>
</svg>
