<svg width="215" height="60" viewBox="0 0 215 60" fill="none" xmlns="http://www.w3.org/2000/svg">
<rect x="0.5" y="0.5" width="214" height="59" rx="9.5" stroke="#D2334D"/>
<path d="M51.392 36V24.8H61.6V36H59.024V26.32L59.616 26.912H53.376L53.968 26.32V36H51.392ZM68.2164 36.128C67.299 36.128 66.483 35.936 65.7684 35.552C65.0644 35.168 64.5044 34.6453 64.0884 33.984C63.683 33.312 63.4804 32.5493 63.4804 31.696C63.4804 30.832 63.683 30.0693 64.0884 29.408C64.5044 28.736 65.0644 28.2133 65.7684 27.84C66.483 27.456 67.299 27.264 68.2164 27.264C69.123 27.264 69.9337 27.456 70.6484 27.84C71.363 28.2133 71.923 28.7307 72.3284 29.392C72.7337 30.0533 72.9364 30.8213 72.9364 31.696C72.9364 32.5493 72.7337 33.312 72.3284 33.984C71.923 34.6453 71.363 35.168 70.6484 35.552C69.9337 35.936 69.123 36.128 68.2164 36.128ZM68.2164 34.08C68.6324 34.08 69.0057 33.984 69.3364 33.792C69.667 33.6 69.9284 33.328 70.1204 32.976C70.3124 32.6133 70.4084 32.1867 70.4084 31.696C70.4084 31.1947 70.3124 30.768 70.1204 30.416C69.9284 30.064 69.667 29.792 69.3364 29.6C69.0057 29.408 68.6324 29.312 68.2164 29.312C67.8004 29.312 67.427 29.408 67.0964 29.6C66.7657 29.792 66.499 30.064 66.2964 30.416C66.1044 30.768 66.0084 31.1947 66.0084 31.696C66.0084 32.1867 66.1044 32.6133 66.2964 32.976C66.499 33.328 66.7657 33.6 67.0964 33.792C67.427 33.984 67.8004 34.08 68.2164 34.08ZM80.7491 36L77.8691 31.92L79.9011 30.72L83.6931 36H80.7491ZM74.6531 36V27.392H77.1491V36H74.6531ZM76.4131 32.736V30.736H79.4211V32.736H76.4131ZM80.1411 31.984L77.8051 31.728L80.8291 27.392H83.4851L80.1411 31.984ZM89.9145 36V34.32L89.7545 33.952V30.944C89.7545 30.4107 89.5892 29.9947 89.2585 29.696C88.9385 29.3973 88.4425 29.248 87.7705 29.248C87.3118 29.248 86.8585 29.3227 86.4105 29.472C85.9732 29.6107 85.5998 29.8027 85.2905 30.048L84.3945 28.304C84.8638 27.9733 85.4292 27.7173 86.0905 27.536C86.7518 27.3547 87.4238 27.264 88.1065 27.264C89.4185 27.264 90.4372 27.5733 91.1625 28.192C91.8878 28.8107 92.2505 29.776 92.2505 31.088V36H89.9145ZM87.2905 36.128C86.6185 36.128 86.0425 36.016 85.5625 35.792C85.0825 35.5573 84.7145 35.2427 84.4585 34.848C84.2025 34.4533 84.0745 34.0107 84.0745 33.52C84.0745 33.008 84.1972 32.56 84.4425 32.176C84.6985 31.792 85.0985 31.4933 85.6425 31.28C86.1865 31.056 86.8958 30.944 87.7705 30.944H90.0585V32.4H88.0425C87.4558 32.4 87.0505 32.496 86.8265 32.688C86.6132 32.88 86.5065 33.12 86.5065 33.408C86.5065 33.728 86.6292 33.984 86.8745 34.176C87.1305 34.3573 87.4772 34.448 87.9145 34.448C88.3305 34.448 88.7038 34.352 89.0345 34.16C89.3652 33.9573 89.6052 33.664 89.7545 33.28L90.1385 34.432C89.9572 34.9867 89.6265 35.408 89.1465 35.696C88.6665 35.984 88.0478 36.128 87.2905 36.128ZM97.2526 36.16C98.0633 36.16 98.7886 36.0533 99.4286 35.84C100.079 35.616 100.591 35.3013 100.965 34.896C101.349 34.48 101.541 33.9947 101.541 33.44C101.541 32.7893 101.269 32.2773 100.725 31.904C100.181 31.52 99.434 31.328 98.4846 31.328L98.4206 31.824C98.9646 31.824 99.4553 31.7333 99.8926 31.552C100.33 31.36 100.671 31.0987 100.917 30.768C101.173 30.4373 101.301 30.064 101.301 29.648C101.301 29.1253 101.114 28.6827 100.741 28.32C100.378 27.9573 99.8766 27.68 99.2366 27.488C98.5966 27.296 97.8766 27.2107 97.0766 27.232C96.5326 27.2427 95.9833 27.3173 95.4286 27.456C94.874 27.5947 94.314 27.7813 93.7486 28.016L94.3566 29.744C94.8366 29.552 95.306 29.408 95.7646 29.312C96.2233 29.2053 96.666 29.152 97.0926 29.152C97.466 29.152 97.7753 29.1893 98.0206 29.264C98.266 29.328 98.4526 29.424 98.5806 29.552C98.7086 29.68 98.7726 29.8347 98.7726 30.016C98.7726 30.1867 98.7193 30.336 98.6126 30.464C98.5166 30.5813 98.3673 30.672 98.1646 30.736C97.962 30.8 97.7166 30.832 97.4286 30.832H95.8766V32.384H97.6366C98.0846 32.384 98.426 32.4587 98.6606 32.608C98.8953 32.7467 99.0126 32.9547 99.0126 33.232C99.0126 33.4453 98.938 33.6267 98.7886 33.776C98.6393 33.9253 98.4206 34.0427 98.1326 34.128C97.8553 34.2027 97.5246 34.24 97.1406 34.24C96.6073 34.24 96.0793 34.1867 95.5566 34.08C95.0446 33.9627 94.57 33.7973 94.1326 33.584L93.4606 35.328C94.0153 35.6053 94.618 35.8133 95.2686 35.952C95.93 36.0907 96.5913 36.16 97.2526 36.16ZM108.477 36V34.32L108.317 33.952V30.944C108.317 30.4107 108.152 29.9947 107.821 29.696C107.501 29.3973 107.005 29.248 106.333 29.248C105.874 29.248 105.421 29.3227 104.973 29.472C104.536 29.6107 104.162 29.8027 103.853 30.048L102.957 28.304C103.426 27.9733 103.992 27.7173 104.653 27.536C105.314 27.3547 105.986 27.264 106.669 27.264C107.981 27.264 109 27.5733 109.725 28.192C110.45 28.8107 110.813 29.776 110.813 31.088V36H108.477ZM105.853 36.128C105.181 36.128 104.605 36.016 104.125 35.792C103.645 35.5573 103.277 35.2427 103.021 34.848C102.765 34.4533 102.637 34.0107 102.637 33.52C102.637 33.008 102.76 32.56 103.005 32.176C103.261 31.792 103.661 31.4933 104.205 31.28C104.749 31.056 105.458 30.944 106.333 30.944H108.621V32.4H106.605C106.018 32.4 105.613 32.496 105.389 32.688C105.176 32.88 105.069 33.12 105.069 33.408C105.069 33.728 105.192 33.984 105.437 34.176C105.693 34.3573 106.04 34.448 106.477 34.448C106.893 34.448 107.266 34.352 107.597 34.16C107.928 33.9573 108.168 33.664 108.317 33.28L108.701 34.432C108.52 34.9867 108.189 35.408 107.709 35.696C107.229 35.984 106.61 36.128 105.853 36.128ZM114.821 36V28.864L115.381 29.44H111.909V27.392H120.213V29.44H116.741L117.301 28.864V36H114.821ZM126.2 30.144C127.33 30.1547 128.189 30.4107 128.776 30.912C129.373 31.4027 129.672 32.1013 129.672 33.008C129.672 33.9573 129.336 34.6987 128.664 35.232C127.992 35.7547 127.058 36.016 125.864 36.016L121.544 36V27.392H124.024V30.144H126.2ZM125.64 34.24C126.12 34.2507 126.488 34.1493 126.744 33.936C127 33.7227 127.128 33.4027 127.128 32.976C127.128 32.5493 127 32.2453 126.744 32.064C126.488 31.872 126.12 31.7707 125.64 31.76L124.024 31.744V34.24H125.64ZM135.763 36V27.392H140.163C141.24 27.392 142.083 27.5893 142.691 27.984C143.299 28.368 143.602 28.912 143.602 29.616C143.602 30.32 143.315 30.8747 142.739 31.28C142.173 31.6747 141.421 31.872 140.483 31.872L140.739 31.296C141.784 31.296 142.563 31.488 143.075 31.872C143.597 32.256 143.859 32.816 143.859 33.552C143.859 34.3093 143.571 34.9067 142.995 35.344C142.419 35.7813 141.539 36 140.355 36H135.763ZM138.051 34.304H140.147C140.605 34.304 140.947 34.2293 141.171 34.08C141.405 33.92 141.523 33.68 141.523 33.36C141.523 33.0293 141.416 32.7893 141.203 32.64C140.989 32.48 140.653 32.4 140.195 32.4H138.051V34.304ZM138.051 30.928H139.939C140.376 30.928 140.701 30.848 140.915 30.688C141.139 30.528 141.251 30.2987 141.251 30C141.251 29.6907 141.139 29.4613 140.915 29.312C140.701 29.1627 140.376 29.088 139.939 29.088H138.051V30.928ZM149.812 36.128C148.884 36.128 148.057 35.9413 147.332 35.568C146.606 35.184 146.036 34.656 145.62 33.984C145.214 33.312 145.012 32.5493 145.012 31.696C145.012 30.832 145.214 30.0693 145.62 29.408C146.036 28.736 146.606 28.2133 147.332 27.84C148.057 27.456 148.884 27.264 149.812 27.264C150.718 27.264 151.508 27.456 152.18 27.84C152.852 28.2133 153.348 28.752 153.668 29.456L151.732 30.496C151.508 30.0907 151.225 29.792 150.884 29.6C150.553 29.408 150.19 29.312 149.796 29.312C149.369 29.312 148.985 29.408 148.644 29.6C148.302 29.792 148.03 30.064 147.828 30.416C147.636 30.768 147.54 31.1947 147.54 31.696C147.54 32.1973 147.636 32.624 147.828 32.976C148.03 33.328 148.302 33.6 148.644 33.792C148.985 33.984 149.369 34.08 149.796 34.08C150.19 34.08 150.553 33.9893 150.884 33.808C151.225 33.616 151.508 33.312 151.732 32.896L153.668 33.952C153.348 34.6453 152.852 35.184 152.18 35.568C151.508 35.9413 150.718 36.128 149.812 36.128ZM159.283 36.128C158.302 36.128 157.438 35.936 156.691 35.552C155.955 35.168 155.384 34.6453 154.979 33.984C154.574 33.312 154.371 32.5493 154.371 31.696C154.371 30.832 154.568 30.0693 154.963 29.408C155.368 28.736 155.918 28.2133 156.611 27.84C157.304 27.456 158.088 27.264 158.963 27.264C159.806 27.264 160.563 27.4453 161.235 27.808C161.918 28.16 162.456 28.672 162.851 29.344C163.246 30.0053 163.443 30.8 163.443 31.728C163.443 31.824 163.438 31.936 163.427 32.064C163.416 32.1813 163.406 32.2933 163.395 32.4H156.403V30.944H162.083L161.123 31.376C161.123 30.928 161.032 30.5387 160.851 30.208C160.67 29.8773 160.419 29.6213 160.099 29.44C159.779 29.248 159.406 29.152 158.979 29.152C158.552 29.152 158.174 29.248 157.843 29.44C157.523 29.6213 157.272 29.8827 157.091 30.224C156.91 30.5547 156.819 30.9493 156.819 31.408V31.792C156.819 32.2613 156.92 32.6773 157.123 33.04C157.336 33.392 157.63 33.664 158.003 33.856C158.387 34.0373 158.835 34.128 159.347 34.128C159.806 34.128 160.206 34.0587 160.547 33.92C160.899 33.7813 161.219 33.5733 161.507 33.296L162.835 34.736C162.44 35.184 161.944 35.5307 161.347 35.776C160.75 36.0107 160.062 36.128 159.283 36.128Z" fill="#D2334D"/>
</svg>
