<svg width="1919" height="67" viewBox="0 0 1919 67" fill="none" xmlns="http://www.w3.org/2000/svg">
<path d="M863.92 51L853.456 34.824L859.744 31.032L872.752 51H863.92ZM842.08 51V17.4H849.808V51H842.08ZM847.552 37.464V30.984H859.264V37.464H847.552ZM860.464 35.064L853.312 34.2L864.208 17.4H872.416L860.464 35.064ZM871.9 51L886.876 17.4H894.556L909.58 51H901.42L889.132 21.336H892.204L879.868 51H871.9ZM879.388 43.8L881.452 37.896H898.732L900.844 43.8H879.388ZM919.596 51V21.96L921.372 23.736H908.892V17.4H938.028V23.736H925.548L927.276 21.96V51H919.596ZM937.431 51L952.407 17.4H960.087L975.111 51H966.951L954.663 21.336H957.735L945.399 51H937.431ZM944.919 43.8L946.983 37.896H964.263L966.375 43.8H944.919ZM980.09 51.528C979.514 51.528 978.906 51.48 978.266 51.384C977.658 51.288 976.986 51.16 976.25 51L976.73 44.424C977.178 44.552 977.642 44.616 978.122 44.616C979.434 44.616 980.458 44.088 981.194 43.032C981.93 41.944 982.458 40.392 982.778 38.376C983.098 36.36 983.306 33.912 983.402 31.032L983.882 17.4H1009.71V51H1002.03V21.96L1003.8 23.736H988.97L990.554 21.864L990.266 30.744C990.17 34.04 989.946 36.968 989.594 39.528C989.242 42.088 988.698 44.264 987.962 46.056C987.226 47.848 986.218 49.208 984.938 50.136C983.658 51.064 982.042 51.528 980.09 51.528ZM1034.18 51.576C1031.52 51.576 1029.06 51.144 1026.79 50.28C1024.55 49.416 1022.59 48.2 1020.93 46.632C1019.3 45.064 1018.02 43.224 1017.09 41.112C1016.19 39 1015.75 36.696 1015.75 34.2C1015.75 31.704 1016.19 29.4 1017.09 27.288C1018.02 25.176 1019.31 23.336 1020.98 21.768C1022.64 20.2 1024.59 18.984 1026.83 18.12C1029.07 17.256 1031.51 16.824 1034.13 16.824C1036.79 16.824 1039.22 17.256 1041.43 18.12C1043.67 18.984 1045.6 20.2 1047.23 21.768C1048.9 23.336 1050.19 25.176 1051.12 27.288C1052.05 29.368 1052.51 31.672 1052.51 34.2C1052.51 36.696 1052.05 39.016 1051.12 41.16C1050.19 43.272 1048.9 45.112 1047.23 46.68C1045.6 48.216 1043.67 49.416 1041.43 50.28C1039.22 51.144 1036.8 51.576 1034.18 51.576ZM1034.13 44.952C1035.63 44.952 1037.01 44.696 1038.26 44.184C1039.54 43.672 1040.66 42.936 1041.62 41.976C1042.58 41.016 1043.31 39.88 1043.83 38.568C1044.37 37.256 1044.64 35.8 1044.64 34.2C1044.64 32.6 1044.37 31.144 1043.83 29.832C1043.31 28.52 1042.58 27.384 1041.62 26.424C1040.69 25.464 1039.59 24.728 1038.31 24.216C1037.03 23.704 1035.63 23.448 1034.13 23.448C1032.63 23.448 1031.23 23.704 1029.95 24.216C1028.71 24.728 1027.6 25.464 1026.64 26.424C1025.68 27.384 1024.93 28.52 1024.39 29.832C1023.87 31.144 1023.62 32.6 1023.62 34.2C1023.62 35.768 1023.87 37.224 1024.39 38.568C1024.93 39.88 1025.67 41.016 1026.59 41.976C1027.55 42.936 1028.67 43.672 1029.95 44.184C1031.23 44.696 1032.63 44.952 1034.13 44.952ZM1058.5 51V17.4H1082.22L1082.17 23.736H1064.41L1066.18 21.96L1066.23 51H1058.5Z" fill="#D2334D"/>
<rect y="32" width="778" height="3" fill="#D2334D"/>
<rect x="1143" y="32" width="777" height="3" fill="#D2334D"/>
</svg>
