<svg width="781" height="41" viewBox="0 0 781 41" fill="none" xmlns="http://www.w3.org/2000/svg">
<rect x="0.5" y="0.5" width="780" height="40" rx="3.5" fill="white" stroke="#D2334D"/>
<g clip-path="url(#clip0_2248_7)">
<path d="M757.304 22.1208C758.744 20.0867 758.262 17.2701 756.228 15.83C754.194 14.3899 751.378 14.8713 749.937 16.9057C748.497 18.9398 748.979 21.756 751.013 23.1962C752.465 24.224 754.384 24.3032 755.916 23.3989L759.243 26.7062C759.602 27.0843 760.2 27.0995 760.578 26.7402C760.956 26.3813 760.971 25.7836 760.613 25.4054C760.601 25.3933 760.59 25.3823 760.578 25.371L757.304 22.1208ZM753.618 22.4291C752.01 22.4295 750.707 21.1273 750.706 19.52C750.706 17.9126 752.008 16.6094 753.616 16.6087C755.221 16.6081 756.523 17.9081 756.527 19.5134C756.529 21.1211 755.228 22.4264 753.62 22.4291C753.619 22.4291 753.619 22.4291 753.618 22.4291Z" fill="#D0334D"/>
</g>
<path d="M28.484 16.6V25H27.608V17.368H22.292V25H21.416V16.6H28.484ZM33.7183 25.06C33.1103 25.06 32.5623 24.924 32.0743 24.652C31.5863 24.372 31.2023 23.988 30.9223 23.5C30.6423 23.012 30.5023 22.46 30.5023 21.844C30.5023 21.228 30.6423 20.676 30.9223 20.188C31.2023 19.7 31.5863 19.32 32.0743 19.048C32.5623 18.776 33.1103 18.64 33.7183 18.64C34.3263 18.64 34.8743 18.776 35.3623 19.048C35.8503 19.32 36.2303 19.7 36.5023 20.188C36.7823 20.676 36.9223 21.228 36.9223 21.844C36.9223 22.46 36.7823 23.012 36.5023 23.5C36.2303 23.988 35.8503 24.372 35.3623 24.652C34.8743 24.924 34.3263 25.06 33.7183 25.06ZM33.7183 24.304C34.1663 24.304 34.5663 24.204 34.9183 24.004C35.2783 23.796 35.5583 23.504 35.7583 23.128C35.9583 22.752 36.0583 22.324 36.0583 21.844C36.0583 21.364 35.9583 20.936 35.7583 20.56C35.5583 20.184 35.2783 19.896 34.9183 19.696C34.5663 19.488 34.1663 19.384 33.7183 19.384C33.2703 19.384 32.8663 19.488 32.5063 19.696C32.1543 19.896 31.8743 20.184 31.6663 20.56C31.4663 20.936 31.3663 21.364 31.3663 21.844C31.3663 22.324 31.4663 22.752 31.6663 23.128C31.8743 23.504 32.1543 23.796 32.5063 24.004C32.8663 24.204 33.2703 24.304 33.7183 24.304ZM38.7433 18.688H39.5953V23.704L43.8073 18.688H44.5633V25H43.7113V19.984L39.5113 25H38.7433V18.688ZM49.645 25.06C49.021 25.06 48.461 24.924 47.965 24.652C47.477 24.38 47.093 24 46.813 23.512C46.533 23.016 46.393 22.46 46.393 21.844C46.393 21.228 46.533 20.676 46.813 20.188C47.093 19.7 47.477 19.32 47.965 19.048C48.461 18.776 49.021 18.64 49.645 18.64C50.189 18.64 50.673 18.748 51.097 18.964C51.529 19.172 51.869 19.48 52.117 19.888L51.481 20.32C51.273 20.008 51.009 19.776 50.689 19.624C50.369 19.464 50.021 19.384 49.645 19.384C49.189 19.384 48.777 19.488 48.409 19.696C48.049 19.896 47.765 20.184 47.557 20.56C47.357 20.936 47.257 21.364 47.257 21.844C47.257 22.332 47.357 22.764 47.557 23.14C47.765 23.508 48.049 23.796 48.409 24.004C48.777 24.204 49.189 24.304 49.645 24.304C50.021 24.304 50.369 24.228 50.689 24.076C51.009 23.924 51.273 23.692 51.481 23.38L52.117 23.812C51.869 24.22 51.529 24.532 51.097 24.748C50.665 24.956 50.181 25.06 49.645 25.06ZM56.0587 22.192H54.6187V25H53.7667V18.688H54.6187V21.46H56.0707L58.2907 18.688H59.2147L56.7307 21.748L59.3947 25H58.3867L56.0587 22.192ZM69.544 18.688V25H68.692V19.444H64.732V25H63.88V18.688H69.544ZM74.5699 25.06C73.9619 25.06 73.4139 24.924 72.9259 24.652C72.4379 24.372 72.0539 23.988 71.7739 23.5C71.4939 23.012 71.3539 22.46 71.3539 21.844C71.3539 21.228 71.4939 20.676 71.7739 20.188C72.0539 19.7 72.4379 19.32 72.9259 19.048C73.4139 18.776 73.9619 18.64 74.5699 18.64C75.1779 18.64 75.7259 18.776 76.2139 19.048C76.7019 19.32 77.0819 19.7 77.3539 20.188C77.6339 20.676 77.7739 21.228 77.7739 21.844C77.7739 22.46 77.6339 23.012 77.3539 23.5C77.0819 23.988 76.7019 24.372 76.2139 24.652C75.7259 24.924 75.1779 25.06 74.5699 25.06ZM74.5699 24.304C75.0179 24.304 75.4179 24.204 75.7699 24.004C76.1299 23.796 76.4099 23.504 76.6099 23.128C76.8099 22.752 76.9099 22.324 76.9099 21.844C76.9099 21.364 76.8099 20.936 76.6099 20.56C76.4099 20.184 76.1299 19.896 75.7699 19.696C75.4179 19.488 75.0179 19.384 74.5699 19.384C74.1219 19.384 73.7179 19.488 73.3579 19.696C73.0059 19.896 72.7259 20.184 72.5179 20.56C72.3179 20.936 72.2179 21.364 72.2179 21.844C72.2179 22.324 72.3179 22.752 72.5179 23.128C72.7259 23.504 73.0059 23.796 73.3579 24.004C73.7179 24.204 74.1219 24.304 74.5699 24.304ZM85.3754 25.06C84.7514 25.06 84.1914 24.924 83.6954 24.652C83.2074 24.38 82.8234 24 82.5434 23.512C82.2634 23.016 82.1234 22.46 82.1234 21.844C82.1234 21.228 82.2634 20.676 82.5434 20.188C82.8234 19.7 83.2074 19.32 83.6954 19.048C84.1914 18.776 84.7514 18.64 85.3754 18.64C85.9194 18.64 86.4034 18.748 86.8274 18.964C87.2594 19.172 87.5994 19.48 87.8474 19.888L87.2114 20.32C87.0034 20.008 86.7394 19.776 86.4194 19.624C86.0994 19.464 85.7514 19.384 85.3754 19.384C84.9194 19.384 84.5074 19.488 84.1394 19.696C83.7794 19.896 83.4954 20.184 83.2874 20.56C83.0874 20.936 82.9874 21.364 82.9874 21.844C82.9874 22.332 83.0874 22.764 83.2874 23.14C83.4954 23.508 83.7794 23.796 84.1394 24.004C84.5074 24.204 84.9194 24.304 85.3754 24.304C85.7514 24.304 86.0994 24.228 86.4194 24.076C86.7394 23.924 87.0034 23.692 87.2114 23.38L87.8474 23.812C87.5994 24.22 87.2594 24.532 86.8274 24.748C86.3954 24.956 85.9114 25.06 85.3754 25.06ZM91.6692 18.64C92.4932 18.64 93.1252 18.848 93.5652 19.264C94.0052 19.672 94.2252 20.28 94.2252 21.088V25H93.4092V24.016C93.2172 24.344 92.9332 24.6 92.5572 24.784C92.1892 24.968 91.7492 25.06 91.2372 25.06C90.5332 25.06 89.9732 24.892 89.5572 24.556C89.1412 24.22 88.9332 23.776 88.9332 23.224C88.9332 22.688 89.1252 22.256 89.5092 21.928C89.9012 21.6 90.5212 21.436 91.3692 21.436H93.3732V21.052C93.3732 20.508 93.2212 20.096 92.9172 19.816C92.6132 19.528 92.1692 19.384 91.5852 19.384C91.1852 19.384 90.8012 19.452 90.4332 19.588C90.0652 19.716 89.7492 19.896 89.4852 20.128L89.1012 19.492C89.4212 19.22 89.8052 19.012 90.2532 18.868C90.7012 18.716 91.1732 18.64 91.6692 18.64ZM91.3692 24.388C91.8492 24.388 92.2612 24.28 92.6052 24.064C92.9492 23.84 93.2052 23.52 93.3732 23.104V22.072H91.3932C90.3132 22.072 89.7732 22.448 89.7732 23.2C89.7732 23.568 89.9132 23.86 90.1932 24.076C90.4732 24.284 90.8652 24.388 91.3692 24.388ZM96.4933 18.688H97.3453V23.704L101.557 18.688H102.313V25H101.461V19.984L97.2613 25H96.4933V18.688ZM99.3613 17.776C98.8173 17.776 98.3853 17.64 98.0653 17.368C97.7453 17.096 97.5813 16.712 97.5733 16.216H98.1853C98.1933 16.528 98.3053 16.78 98.5213 16.972C98.7373 17.156 99.0173 17.248 99.3613 17.248C99.7053 17.248 99.9853 17.156 100.201 16.972C100.425 16.78 100.541 16.528 100.549 16.216H101.161C101.153 16.712 100.985 17.096 100.657 17.368C100.337 17.64 99.9053 17.776 99.3613 17.776ZM109.195 19.444H106.807V25H105.955V19.444H103.567V18.688H109.195V19.444ZM115.814 18.688L112.658 25.756C112.402 26.348 112.106 26.768 111.77 27.016C111.434 27.264 111.03 27.388 110.558 27.388C110.254 27.388 109.97 27.34 109.706 27.244C109.442 27.148 109.214 27.004 109.022 26.812L109.418 26.176C109.738 26.496 110.122 26.656 110.57 26.656C110.858 26.656 111.102 26.576 111.302 26.416C111.51 26.256 111.702 25.984 111.878 25.6L112.154 24.988L109.334 18.688H110.222L112.598 24.052L114.974 18.688H115.814Z" fill="#ABABAB"/>
<defs>
<clipPath id="clip0_2248_7">
<rect width="12" height="12" fill="white" transform="translate(749 15)"/>
</clipPath>
</defs>
</svg>
