<svg width="164" height="71" viewBox="0 0 164 71" fill="none" xmlns="http://www.w3.org/2000/svg">
<rect width="164" height="71" rx="10" fill="#D2334D"/>
<path d="M32.876 36.796H30.412V43H26.87V27.6H30.412V33.826H32.964L37.012 27.6H40.774L35.736 35.036L40.928 43H36.88L32.876 36.796ZM52.7248 39.7H45.5748L44.2108 43H40.5588L47.4228 27.6H50.9428L57.8288 43H54.0888L52.7248 39.7ZM51.6028 36.994L49.1608 31.098L46.7188 36.994H51.6028ZM70.8676 30.504H65.9396V43H62.4196V30.504H57.5136V27.6H70.8676V30.504ZM82.76 39.7H75.61L74.246 43H70.594L77.458 27.6H80.978L87.864 43H84.124L82.76 39.7ZM81.638 36.994L79.196 31.098L76.754 36.994H81.638ZM103.763 27.6V43H100.243V30.504H94.9631L94.8531 33.716C94.7798 35.9013 94.6038 37.676 94.3251 39.04C94.0464 40.3893 93.5771 41.4307 92.9171 42.164C92.2718 42.8827 91.3624 43.242 90.1891 43.242C89.7051 43.242 89.1184 43.1613 88.4291 43L88.6491 39.986C88.8398 40.0447 89.0524 40.074 89.2871 40.074C90.1378 40.074 90.7318 39.5753 91.0691 38.578C91.4064 37.566 91.6191 35.9893 91.7071 33.848L91.9271 27.6H103.763ZM114.957 43.264C113.359 43.264 111.914 42.9193 110.623 42.23C109.347 41.5407 108.343 40.5947 107.609 39.392C106.891 38.1747 106.531 36.8107 106.531 35.3C106.531 33.7893 106.891 32.4327 107.609 31.23C108.343 30.0127 109.347 29.0593 110.623 28.37C111.914 27.6807 113.359 27.336 114.957 27.336C116.556 27.336 117.993 27.6807 119.269 28.37C120.545 29.0593 121.55 30.0127 122.283 31.23C123.017 32.4327 123.383 33.7893 123.383 35.3C123.383 36.8107 123.017 38.1747 122.283 39.392C121.55 40.5947 120.545 41.5407 119.269 42.23C117.993 42.9193 116.556 43.264 114.957 43.264ZM114.957 40.228C115.867 40.228 116.688 40.0227 117.421 39.612C118.155 39.1867 118.727 38.6 119.137 37.852C119.563 37.104 119.775 36.2533 119.775 35.3C119.775 34.3467 119.563 33.496 119.137 32.748C118.727 32 118.155 31.4207 117.421 31.01C116.688 30.5847 115.867 30.372 114.957 30.372C114.048 30.372 113.227 30.5847 112.493 31.01C111.76 31.4207 111.181 32 110.755 32.748C110.345 33.496 110.139 34.3467 110.139 35.3C110.139 36.2533 110.345 37.104 110.755 37.852C111.181 38.6 111.76 39.1867 112.493 39.612C113.227 40.0227 114.048 40.228 114.957 40.228ZM136.975 30.504H129.649L129.671 43H126.129V27.6H136.997L136.975 30.504Z" fill="white"/>
</svg>
