<svg width="11" height="15" viewBox="0 0 11 15" fill="none" xmlns="http://www.w3.org/2000/svg">
<path d="M3.07734 14.9998C1.40992 9.5054 4.93314 7.49925 4.93314 7.49925C4.68663 10.4311 6.35274 12.7152 6.35274 12.7152C6.96551 12.5304 8.13511 11.6663 8.13511 11.6663C8.13511 12.7152 7.51797 14.9985 7.51797 14.9985C7.51797 14.9985 9.67841 13.328 10.3585 10.5535C11.0377 7.77897 9.06476 4.99353 9.06476 4.99353C9.18364 6.95728 8.5193 8.88869 7.2177 10.3642C7.28283 10.2891 7.33746 10.2056 7.37942 10.1151C7.61325 9.64745 7.98869 8.43196 7.76885 5.61722C7.4594 1.66611 3.87936 0 3.87936 0C4.18793 2.40738 3.26266 2.96202 1.09523 7.53159C-1.0722 12.1003 3.07734 14.9998 3.07734 14.9998Z" fill="#D2334D"/>
</svg>
