<svg width="28" height="28" viewBox="0 0 28 28" fill="none" xmlns="http://www.w3.org/2000/svg">
<circle cx="14" cy="14" r="14" fill="#7294C7"/>
<path d="M20.8643 17.5807C20.8643 17.5225 20.8062 17.5226 20.8062 17.4644C20.5737 16.9995 20.0506 16.4183 19.3533 15.7791C19.0046 15.4885 18.8302 15.256 18.714 15.1398C18.5396 14.9073 18.5396 14.733 18.5978 14.5005C18.6559 14.3262 18.8883 14.0356 19.2951 13.5125C19.5276 13.222 19.6438 13.0476 19.8182 12.8733C20.6899 11.7109 21.0967 10.9554 20.9805 10.6067L20.9224 10.5486C20.8643 10.4905 20.8061 10.4324 20.6899 10.4324C20.5737 10.3743 20.3993 10.3743 20.225 10.4324H18.0166C17.9585 10.4324 17.9585 10.4324 17.8422 10.4324C17.7841 10.4324 17.726 10.4324 17.726 10.4324H17.6679H17.6098L17.5517 10.4905C17.4935 10.5486 17.4935 10.5486 17.4935 10.6067C17.2611 11.246 16.9705 11.7691 16.6799 12.3502C16.5056 12.6408 16.3312 12.9314 16.1569 13.1639C15.9825 13.3963 15.8663 13.5707 15.7501 13.6869C15.6338 13.8031 15.5176 13.8612 15.4595 13.9775C15.4014 14.0356 15.2851 14.0937 15.2851 14.0356C15.227 14.0356 15.1689 14.0356 15.1689 13.9775C15.1108 13.9194 15.0527 13.8612 14.9945 13.8031C14.9364 13.745 14.9364 13.6288 14.8783 13.5125C14.8783 13.3963 14.8783 13.2801 14.8783 13.222C14.8783 13.1638 14.8783 12.9895 14.8783 12.8733C14.8783 12.6989 14.8783 12.5827 14.8783 12.5246C14.8783 12.3502 14.8783 12.1178 14.8783 11.8853C14.8783 11.6528 14.8783 11.4785 14.8783 11.3622C14.8783 11.246 14.8783 11.0717 14.8783 10.9554C14.8783 10.7811 14.8783 10.6649 14.8783 10.6067C14.8783 10.5486 14.8202 10.4324 14.8202 10.3743C14.7621 10.3162 14.704 10.258 14.6458 10.1999C14.5877 10.1418 14.4715 10.1418 14.4134 10.0837C14.1228 10.0256 13.7741 9.96747 13.3673 9.96747C12.4374 9.96747 11.7982 10.0256 11.5657 10.1418C11.4495 10.1999 11.3332 10.258 11.2751 10.3743C11.1589 10.4905 11.1589 10.5486 11.217 10.5486C11.5076 10.6067 11.7401 10.723 11.8563 10.8973L11.9144 11.0136C11.9725 11.0717 11.9725 11.1879 12.0306 11.3622C12.0887 11.5366 12.0887 11.7109 12.0887 11.9434C12.0887 12.2921 12.0887 12.6408 12.0887 12.8733C12.0887 13.1639 12.0306 13.3382 12.0306 13.5125C12.0306 13.6869 11.9725 13.8031 11.9144 13.8612C11.8563 13.9775 11.8563 14.0356 11.7982 14.0356C11.7982 14.0356 11.7982 14.0937 11.74 14.0937C11.6819 14.0937 11.6238 14.1518 11.5076 14.1518C11.4495 14.1518 11.3332 14.0937 11.2751 14.0356C11.1589 13.9775 11.0427 13.8612 10.9845 13.745C10.8683 13.6288 10.7521 13.4544 10.6358 13.222C10.5196 12.9895 10.3453 12.757 10.229 12.4083L10.1128 12.1759C10.0547 12.0596 9.93846 11.8272 9.82222 11.5366C9.70599 11.246 9.58976 11.0136 9.47352 10.723C9.41541 10.6067 9.3573 10.5486 9.29918 10.4905H9.24106C9.24106 10.4905 9.18294 10.4324 9.12482 10.4324C9.06671 10.4324 9.0086 10.3743 8.95048 10.3743H6.8583C6.62584 10.3743 6.50961 10.4324 6.45149 10.4905L6.39337 10.5486C6.39337 10.5486 6.39337 10.6067 6.39337 10.6649C6.39337 10.723 6.39338 10.7811 6.45149 10.8973C6.74207 11.5947 7.09077 12.2921 7.43946 12.9895C7.78816 13.6288 8.13686 14.2099 8.36932 14.6168C8.6599 15.0236 8.89236 15.4304 9.18294 15.7791C9.47352 16.1278 9.64787 16.3602 9.70598 16.4765C9.82222 16.5927 9.88033 16.6508 9.93845 16.7089L10.1128 16.8833C10.229 16.9995 10.4034 17.1739 10.6358 17.3482C10.8683 17.5226 11.1589 17.6969 11.4495 17.8712C11.74 18.0456 12.0887 18.1618 12.4374 18.2781C12.8443 18.3943 13.193 18.4524 13.5416 18.3943H14.4134C14.5877 18.3943 14.704 18.3362 14.8202 18.2199L14.8783 18.1618C14.8783 18.1037 14.9364 18.1037 14.9364 18.0456C14.9364 17.9875 14.9364 17.9294 14.9364 17.8131C14.9364 17.5807 14.9364 17.4063 14.9945 17.232C15.0527 17.0576 15.0527 16.9414 15.1108 16.8252C15.1689 16.7089 15.227 16.6508 15.2851 16.5927C15.3432 16.5346 15.4014 16.4765 15.4014 16.4765H15.4595C15.5757 16.4183 15.7501 16.4765 15.8663 16.5927C16.0406 16.7089 16.215 16.8833 16.3312 17.0576C16.4474 17.232 16.6218 17.4063 16.8543 17.6388C17.0867 17.8712 17.2611 18.0456 17.3773 18.1037L17.5517 18.2199C17.6679 18.2781 17.7841 18.3362 17.9585 18.3943C18.1328 18.4524 18.249 18.4524 18.3653 18.4524L20.3412 18.3943C20.5156 18.3943 20.6899 18.3362 20.8062 18.2781C20.9224 18.2199 20.9805 18.1618 20.9805 18.0456C20.9805 17.9875 20.9805 17.8713 20.9805 17.8131C20.8643 17.6969 20.8643 17.6388 20.8643 17.5807Z" fill="white"/>
</svg>
