<svg width="28" height="28" viewBox="0 0 28 28" fill="none" xmlns="http://www.w3.org/2000/svg">
<circle cx="14" cy="14" r="14" fill="#48C95F"/>
<path d="M19.5488 8.44374C18.1659 7.06561 16.3219 6.29999 14.3756 6.29999C10.3293 6.29999 7.05122 9.56665 7.05122 13.5989C7.05122 14.875 7.40976 16.151 8.02439 17.2229L7 21L10.8927 19.9792C11.9683 20.5406 13.1463 20.8469 14.3756 20.8469C18.4219 20.8469 21.7 17.5802 21.7 13.5479C21.6488 11.6594 20.9317 9.82186 19.5488 8.44374ZM17.9098 16.2021C17.7561 16.6104 17.039 17.0187 16.6805 17.0698C16.3732 17.1208 15.9634 17.1208 15.5537 17.0187C15.2976 16.9167 14.939 16.8146 14.5293 16.6104C12.6854 15.8448 11.5073 14.0073 11.4049 13.8542C11.3024 13.7521 10.6366 12.8844 10.6366 11.9656C10.6366 11.0469 11.0976 10.6385 11.2512 10.4344C11.4049 10.2302 11.6098 10.2302 11.7634 10.2302C11.8659 10.2302 12.0195 10.2302 12.1219 10.2302C12.2244 10.2302 12.378 10.1792 12.5317 10.5364C12.6854 10.8937 13.0439 11.8125 13.0951 11.8635C13.1463 11.9656 13.1463 12.0677 13.0951 12.1698C13.0439 12.2719 12.9927 12.3739 12.8902 12.476C12.7878 12.5781 12.6854 12.7312 12.6341 12.7823C12.5317 12.8844 12.4293 12.9864 12.5317 13.1396C12.6341 13.3437 12.9927 13.9052 13.5561 14.4156C14.2732 15.0281 14.8366 15.2323 15.0415 15.3344C15.2463 15.4364 15.3488 15.3854 15.4512 15.2833C15.5537 15.1812 15.9122 14.7729 16.0146 14.5687C16.1171 14.3646 16.2707 14.4156 16.4244 14.4667C16.578 14.5177 17.5 14.9771 17.6537 15.0792C17.8585 15.1812 17.961 15.2323 18.0122 15.2833C18.0634 15.4364 18.0634 15.7937 17.9098 16.2021Z" fill="white"/>
</svg>
